<svg width="92" height="86" viewBox="0 0 92 86" fill="none" xmlns="http://www.w3.org/2000/svg">
<g clip-path="url(#clip0_47_732)">
<path d="M45.9359 85.9976C32.2872 85.9976 18.6361 85.9976 4.98746 85.9928C4.44644 85.9928 3.90059 85.966 3.36923 85.8832C1.58193 85.6007 0.268021 84.298 0.0434015 82.6325C-0.210202 80.7406 0.65688 79.0459 2.4007 78.3641C3.15427 78.0694 3.28952 77.6628 3.28952 76.9469C3.27503 60.7862 3.27503 44.6254 3.28952 28.4646C3.28952 27.7342 3.23639 27.2813 2.34998 27.0378C0.84044 26.6238 0.130351 25.3917 0.0965374 23.865C0.038571 21.2548 0.0264947 18.6396 0.0965374 16.0294C0.154504 13.8355 1.5457 12.5596 3.79673 12.5376C6.86895 12.5084 9.94359 12.5279 13.0158 12.5279C17.4454 12.5279 21.875 12.4962 26.3046 12.5522C27.2852 12.5644 27.7803 12.2649 28.2248 11.3616C31.4177 4.86024 36.6444 1.07389 43.7622 0.155917C52.0635 -0.915462 60.0918 3.62085 63.7509 11.3056C64.1978 12.2454 64.7026 12.5596 65.7266 12.5547C73.1077 12.5084 80.4912 12.5303 87.8722 12.5279C88.8866 12.5279 89.8576 12.6521 90.6788 13.329C91.5893 14.0814 91.9202 15.1016 91.925 16.2388C91.9395 18.6981 91.954 21.1598 91.9226 23.6191C91.8985 25.5281 91.0845 26.6043 89.2827 27.1644C88.8963 27.2837 88.7176 27.4614 88.7248 27.8535C88.7296 28.097 88.7224 28.3405 88.7224 28.5815C88.7224 44.6522 88.7272 60.7204 88.7079 76.7911C88.7079 77.6044 88.8456 78.0768 89.703 78.4201C91.3937 79.097 92.2245 80.8258 91.9492 82.6618C91.7053 84.3029 90.4131 85.591 88.6838 85.871C88.1234 85.9611 87.5462 85.9879 86.9762 85.9879C73.2961 85.9952 59.616 85.9928 45.9359 85.9928V85.9976ZM6.04051 52.6486C6.04051 60.6936 6.04051 68.7387 6.04051 76.7838C6.04051 77.9331 6.08399 77.9769 7.19743 77.9794C9.99914 77.9842 12.7984 77.9818 15.6001 77.9794C16.8295 77.9794 16.8319 77.9745 16.8319 76.7034C16.8319 66.6252 16.8319 56.5445 16.8319 46.4662C16.8319 44.8543 17.2546 44.4306 18.8752 44.4282C22.3387 44.4233 25.8022 44.4038 29.2633 44.4428C30.1111 44.4525 30.4178 44.2212 30.4057 43.3227C30.3574 40.1061 30.355 36.8871 30.4057 33.6681C30.4202 32.6211 30.227 31.7421 29.5749 30.8874C28.9928 30.1277 28.5363 29.2438 28.1595 28.3575C27.8262 27.571 27.3818 27.2861 26.5268 27.291C20.1119 27.3251 13.6993 27.308 7.28438 27.3105C6.05983 27.3105 6.04293 27.33 6.04051 28.6034C6.04051 36.6193 6.04051 44.6327 6.04051 52.6486ZM85.9569 52.6388C85.9569 44.5889 85.9521 36.5389 85.9642 28.489C85.9642 27.7585 85.8869 27.291 84.9594 27.2959C78.3609 27.3251 71.7624 27.3178 65.1639 27.3032C64.5673 27.3032 64.2243 27.5174 63.9876 28.0677C63.4466 29.3242 62.7752 30.5149 61.9491 31.6033C61.6497 31.9978 61.6086 32.4263 61.6086 32.889C61.6134 36.3831 61.6376 39.8773 61.5917 43.369C61.5796 44.2456 61.896 44.4452 62.6931 44.4379C66.1276 44.4063 69.5621 44.4209 72.999 44.4257C74.7935 44.4257 75.1679 44.8056 75.1679 46.6148C75.1679 56.6395 75.1679 66.6641 75.1679 76.6888C75.1679 77.5459 75.6043 77.9761 76.477 77.9794C79.2183 77.9794 81.9621 77.9818 84.7034 77.9794C85.9424 77.9794 85.9569 77.9623 85.9593 76.6961C85.9593 68.6754 85.9593 60.6571 85.9593 52.6364L85.9569 52.6388ZM62.9708 19.6233C63.0094 18.7346 62.9032 17.5877 62.6568 16.4579C60.6038 7.04682 52.0369 1.26138 42.5594 3.16308C31.8187 5.31801 26.1669 16.828 30.413 26.7943C30.6666 27.3908 30.8888 27.4493 31.3549 26.9745C33.7895 24.4908 36.2386 22.0218 38.6998 19.5649C39.2601 19.0073 39.3712 18.3693 39.2191 17.6462C39.1321 17.2322 39.0065 16.8231 38.8906 16.4165C38.4679 14.9312 38.8495 13.6601 39.9146 12.5815C41.2962 11.1838 42.6729 9.78127 44.0689 8.39579C45.0906 7.38285 46.2982 6.99813 47.7111 7.39015C48.2908 7.55086 48.8753 7.69939 49.455 7.8674C51.5152 8.46397 51.9524 10.0686 50.4573 11.6148C49.3004 12.8104 48.1821 14.0546 46.9262 15.1357C45.9963 15.9368 45.8659 16.7282 46.2402 17.8288C46.6919 19.1558 48.6579 19.7183 49.6554 18.72C51.0466 17.3321 52.4185 15.9222 53.8145 14.5392C55.0946 13.2706 56.5993 13.6309 57.1693 15.3524C57.4253 16.1292 57.6089 16.9303 57.8021 17.7241C58.1161 19.0146 57.7635 20.1347 56.8602 21.0673C55.4062 22.5648 53.9401 24.0476 52.4523 25.511C51.5055 26.4436 50.3655 26.8016 49.0516 26.4656C48.6144 26.3535 48.1725 26.2537 47.7401 26.1222C46.9093 25.8714 46.2402 26.0613 45.6171 26.6993C43.1873 29.1878 40.7238 31.6423 38.2795 34.1162C37.6153 34.7858 37.6395 34.8734 38.5138 35.302C41.6899 36.8604 45.035 37.3985 48.5251 36.8823C56.8505 35.6526 62.9805 28.4257 62.9708 19.6233ZM46.006 73.4723C39.5016 73.4723 32.9997 73.4723 26.4954 73.4723C24.4787 73.4723 22.4595 73.4869 20.4428 73.465C19.8244 73.4576 19.5612 73.6963 19.5829 74.3196C19.6047 75.016 19.5853 75.7149 19.5853 76.4137C19.5853 77.4575 20.0917 77.9802 21.1045 77.9818C37.695 77.9818 54.2855 77.9818 70.876 77.9818C71.1465 77.9818 71.417 77.9745 71.6899 77.9769C72.1754 77.9794 72.4048 77.7359 72.4048 77.2489C72.4048 76.4283 72.4121 75.6101 72.4097 74.7896C72.4097 73.913 71.9781 73.4739 71.1151 73.4723C62.7438 73.4723 54.3749 73.4723 46.0035 73.4723H46.006ZM45.9963 47.2259C38.1636 47.2259 30.3309 47.2259 22.4957 47.2259C21.8629 47.2259 21.2277 47.2673 20.5973 47.2162C19.7834 47.148 19.5201 47.5108 19.5757 48.2827C19.6167 48.8573 19.5829 49.4369 19.5829 50.014C19.5829 51.0285 20.0724 51.5358 21.0514 51.5358C37.6829 51.5358 54.3121 51.5358 70.9436 51.5358C71.033 51.5358 71.1248 51.5261 71.2141 51.5358C72.1005 51.6551 72.5111 51.3191 72.4193 50.3719C72.3614 49.7705 72.4097 49.1568 72.4073 48.5505C72.4056 47.6691 71.9765 47.2276 71.1199 47.2259C62.7438 47.2259 54.3676 47.2259 45.9939 47.2259H45.9963ZM14.9021 15.3281C11.2865 15.3281 7.67323 15.3257 4.05758 15.3281C2.96588 15.3281 2.84511 15.4474 2.8427 16.5188C2.83545 18.7955 2.86444 21.0746 2.82821 23.3512C2.81613 24.2157 3.13495 24.5322 3.99478 24.5298C11.2841 24.5103 18.5733 24.5079 25.8626 24.5346C26.6548 24.5371 26.7563 24.2692 26.6138 23.5728C26.1114 21.1379 26.109 18.6859 26.6138 16.2509C26.7683 15.4985 26.5775 15.3062 25.8361 15.3135C22.1914 15.3451 18.5468 15.3281 14.9021 15.3281ZM77.0953 24.52C80.7399 24.52 84.3846 24.5079 88.0292 24.5298C88.8311 24.5346 89.1765 24.2522 89.1668 23.417C89.1378 21.0794 89.1402 18.7395 89.1668 16.4019C89.174 15.6203 88.8649 15.3183 88.0944 15.3208C80.7448 15.3354 73.3951 15.333 66.0454 15.3208C65.4706 15.3208 65.2291 15.4328 65.3668 16.0975C65.8764 18.5934 65.9054 21.1038 65.3812 23.5996C65.2218 24.3544 65.4296 24.5395 66.1662 24.5346C69.8108 24.503 73.4555 24.52 77.1001 24.52H77.0953ZM45.9987 83.2096C59.7657 83.2096 73.5352 83.2096 87.3022 83.2096C88.6475 83.2096 89.261 82.8346 89.2779 82.0092C89.2948 81.1643 88.6813 80.7698 87.3433 80.7698C59.7778 80.7698 32.2124 80.7698 4.6469 80.7698C4.37639 80.7698 4.10105 80.7552 3.83537 80.7917C3.13978 80.8891 2.72676 81.3225 2.73401 82.0141C2.74126 82.6593 3.14461 83.0854 3.79431 83.1804C4.14936 83.234 4.51648 83.2096 4.87635 83.2096C18.583 83.2096 32.2921 83.2096 45.9987 83.2096ZM45.9625 57.9129C54.0367 57.9129 62.111 57.9202 70.1852 57.9081C72.6995 57.9032 72.3879 58.2416 72.4073 55.6923C72.4169 54.336 72.4073 54.3336 71.0668 54.3336C54.6478 54.3336 38.2264 54.3287 21.8074 54.3384C19.2883 54.3384 19.6095 53.9513 19.5878 56.5372C19.5757 57.9081 19.5878 57.9105 20.9282 57.9105C29.273 57.9105 37.6201 57.9105 45.9649 57.9105L45.9625 57.9129ZM45.9939 60.7107C37.8593 60.7107 29.7246 60.7034 21.59 60.7156C19.3535 60.718 19.5974 60.4039 19.5853 62.7707C19.5781 64.2901 19.5853 64.2925 21.1432 64.2925C37.5018 64.2925 53.8628 64.2974 70.2214 64.2876C72.7019 64.2876 72.3879 64.6212 72.4073 62.0377C72.4169 60.7156 72.4073 60.7131 71.1223 60.7131C62.7462 60.7131 54.37 60.7131 45.9963 60.7131L45.9939 60.7107ZM45.9939 67.0903C37.8593 67.0903 29.7246 67.0829 21.59 67.0951C19.3535 67.0976 19.595 66.7835 19.5829 69.1478C19.5757 70.6696 19.5829 70.6721 21.1384 70.6721C37.497 70.6721 53.858 70.6769 70.2166 70.6672C72.6995 70.6672 72.3831 71.0032 72.4024 68.4173C72.4121 67.0951 72.4024 67.0903 71.1199 67.0903C62.7438 67.0903 54.3676 67.0903 45.9939 67.0903ZM58.9421 35.1973C58.5895 35.1535 58.4784 35.3166 58.3407 35.4237C50.9887 41.2579 41.1175 41.2895 33.7436 35.509C33.5697 35.3726 33.4176 35.0487 33.1543 35.2192C32.9369 35.3604 33.048 35.6697 33.048 35.9034C33.0408 38.2726 33.0432 40.6418 33.0432 43.011C33.0432 43.9493 33.4973 44.4192 34.4054 44.4209C42.1174 44.4209 49.8317 44.4209 57.5437 44.4209C57.7852 44.4209 58.0268 44.4136 58.2659 44.416C58.7006 44.4233 58.9421 44.2529 58.9421 43.7756C58.9349 40.9243 58.9397 38.073 58.9397 35.1924L58.9421 35.1973ZM47.8633 10.3827C46.9938 9.9225 46.3586 9.92007 45.7282 10.5921C44.6099 11.7804 43.4748 12.9589 42.2744 14.0619C41.545 14.7315 41.3638 15.4182 41.6971 16.3264C42.5062 18.5252 41.8928 20.3173 40.2431 21.9171C37.7288 24.3593 35.3039 26.8965 32.8138 29.3656C32.3452 29.8282 32.2896 30.1837 32.7461 30.6537C33.3137 31.2381 33.8765 31.8322 34.4054 32.4507C34.973 33.1178 35.4102 33.1568 36.0695 32.4677C38.6056 29.8307 41.2141 27.2666 43.7767 24.6564C44.8466 23.568 46.105 23.0566 47.6145 23.2806C48.1773 23.3634 48.7352 23.5144 49.2786 23.6897C49.8994 23.8894 50.3703 23.7408 50.822 23.2733C52.0828 21.9682 53.3725 20.6947 54.6454 19.4018C54.812 19.2313 54.9883 19.0438 55.0801 18.8295C55.2492 18.4375 55.1767 17.9676 54.899 17.7216C54.5439 17.41 54.341 17.9067 54.1382 18.1064C53.1624 19.0536 52.206 20.0227 51.2592 20.9991C50.31 21.9779 49.1965 22.3091 47.8826 21.9365C47.245 21.7564 46.6025 21.5981 45.9673 21.413C44.8273 21.0819 44.1317 20.3003 43.8056 19.1704C43.6535 18.6469 43.5424 18.1112 43.383 17.5902C42.9337 16.1048 43.2646 14.8654 44.4095 13.7989C45.5736 12.713 46.6774 11.5612 47.8633 10.3803V10.3827Z" fill="#B3B3B3"/>
</g>
<defs>
<clipPath id="clip0_47_732">
<rect width="92" height="86" fill="white"/>
</clipPath>
</defs>
</svg>
