<svg width="88" height="90" viewBox="0 0 88 90" fill="none" xmlns="http://www.w3.org/2000/svg">
<g clip-path="url(#clip0_47_727)">
<path d="M87.5891 41.533C87.3408 43.7758 87.0754 46.2314 86.7953 48.6871C86.3376 52.6984 85.7849 56.7024 85.4294 60.7234C84.8839 66.8806 83.591 72.8782 81.7843 78.7766C81.419 79.9742 80.8225 81.0701 79.997 82.0088C78.6189 83.5717 77.7398 85.35 77.3503 87.3871C77.2383 87.9774 77.0581 88.5629 76.834 89.1193C76.5443 89.8379 75.9453 90.1234 75.2075 89.9129C74.4697 89.7024 74.0728 89.1242 74.2555 88.3814C74.9105 85.7516 75.4072 83.0346 77.3673 80.9516C79.0985 79.1105 79.4662 76.7225 80.1504 74.4484C81.6138 69.5685 82.242 64.5508 82.7753 59.5088C83.3134 54.4137 83.944 49.3306 84.5211 44.2403C84.6404 43.1927 84.7597 42.1403 84.7719 41.0879C84.7865 39.5951 83.7541 38.4895 82.3686 38.383C81.0903 38.2838 79.8314 39.2782 79.5904 40.6475C78.855 44.833 78.1538 49.0258 77.4257 53.2137C77.3381 53.7169 77.4939 53.9758 77.9906 54.1596C81.0562 55.2895 82.2225 57.508 81.3922 60.6532C80.3209 64.708 79.2154 68.7532 78.1173 72.8008C77.8275 73.8677 77.1384 74.383 76.3276 74.1629C75.5095 73.9403 75.1734 73.1782 75.4608 72.0992C76.5589 67.9887 77.6619 63.883 78.7771 59.7774C78.95 59.1387 78.9768 58.529 78.6676 57.9314C78.2536 57.1306 77.5548 56.6879 76.6831 56.7145C75.7943 56.7411 75.0152 57.1403 74.6767 58.033C74.4308 58.679 74.2603 59.3564 74.0899 60.0266C73.3521 62.9177 71.784 65.2355 69.3686 67.0185C67.1528 68.654 64.8104 70.125 62.7845 72.0145C60.9194 73.754 59.6288 75.7645 59.098 78.3096C58.4942 81.1984 57.8562 84.0943 56.7288 86.8451C56.3514 87.7669 55.9618 88.6935 55.3117 89.4677C54.8174 90.0556 54.1649 90.1742 53.5196 89.7556C52.8792 89.3395 52.6503 88.6863 53.0594 88.0234C54.759 85.2605 55.5576 82.1661 56.0665 79.0596C56.8968 73.9935 59.8042 70.4734 63.8315 67.6282C64.6229 67.0693 65.385 66.4645 66.2032 65.9443C66.8314 65.5451 66.9093 65.2064 66.4466 64.5895C65.1927 62.9226 64.0677 61.1564 62.7748 59.5209C60.9461 57.2056 61.6644 53.6903 64.5304 52.5798C64.9492 52.4177 65.0368 52.2024 64.954 51.75C64.4281 48.8782 65.6431 46.9016 68.4214 46.108C68.8743 45.9798 69.0739 45.8177 69.091 45.3314C69.2273 41.9105 73.0404 39.5346 76.1498 41.0274C76.6173 41.2524 76.7074 41.0903 76.7732 40.6621C76.9363 39.5758 77.2626 38.55 77.9906 37.6838C79.5344 35.85 81.8744 35.1992 84.0731 36.0048C86.2231 36.7935 87.6086 38.8959 87.5843 41.5427L87.5891 41.533ZM71.9325 57.2467C72.5072 56.1338 73.1378 55.2629 74.1045 54.6822C74.3723 54.5201 74.3407 54.2806 74.18 54.058C73.0307 52.4661 71.9155 50.8451 70.7053 49.2992C70.1331 48.5661 69.0764 48.5467 68.3142 49.0814C67.5935 49.5871 67.2502 50.5911 67.7445 51.3242C69.0666 53.2959 70.4813 55.2072 71.9325 57.2467ZM64.4792 56.6564C64.5352 57.1717 64.7885 57.5806 65.0709 57.975C65.9864 59.2476 66.8947 60.525 67.8126 61.7951C69.276 63.8225 69.466 63.8008 70.6225 61.5072C70.8149 61.1274 71.0146 60.7572 70.7078 60.329C69.5634 58.7395 68.4482 57.1282 67.2745 55.5605C66.8557 55.0016 66.2251 54.8879 65.553 55.1371C64.8396 55.4032 64.5644 55.9742 64.4768 56.6564H64.4792ZM74.9056 50.3661C74.9811 50.3588 75.059 50.3516 75.1345 50.3419C75.4267 48.5709 75.7432 46.8024 76.0013 45.029C76.1084 44.3008 75.5995 43.858 75.0322 43.5314C74.2652 43.0887 73.245 43.2895 72.5437 43.9717C71.8303 44.6685 71.6525 45.6677 72.215 46.5242C73.0721 47.8306 74.0071 49.0863 74.908 50.3637L74.9056 50.3661Z" fill="#B3B3B3"/>
<path d="M2.82442 41.8064C3.12391 44.5355 3.43558 47.504 3.77404 50.4677C4.22694 54.4185 4.79184 58.3621 5.14247 62.3226C5.57345 67.1879 6.73735 71.8863 8.01812 76.575C8.45641 78.179 9.07975 79.6524 10.2071 80.8911C12.1502 83.0274 12.6981 85.7468 13.3457 88.4105C13.5259 89.1532 13.0876 89.7194 12.3547 89.9177C11.6096 90.121 11.0082 89.8137 10.7501 89.0855C10.4604 88.2629 10.2266 87.4137 10.0342 86.5621C9.69579 85.0548 9.02862 83.7266 8.01812 82.5581C6.77144 81.1137 5.9947 79.4492 5.44684 77.6202C3.61577 71.4968 2.57849 65.2427 1.96732 58.8919C1.4292 53.2839 0.708463 47.6927 0.0437268 42.0968C-0.306903 39.1403 1.34641 36.5274 4.0711 35.8258C6.69595 35.1484 9.40847 36.5323 10.419 39.1137C10.6576 39.7258 10.5456 40.6161 10.9546 40.979C11.4246 41.3976 12.1015 40.6379 12.7662 40.5847C15.8294 40.3476 18.1742 42.2589 18.4981 45.3581C18.5419 45.7887 18.6929 45.9605 19.1165 46.0863C21.9897 46.9355 23.1439 48.8008 22.6277 51.7766C22.5449 52.2508 22.6934 52.4443 23.0879 52.5895C25.815 53.6008 26.7184 57.1137 24.7948 59.5403C23.5384 61.1274 22.4646 62.8572 21.2276 64.4589C20.67 65.1798 20.8064 65.5234 21.5028 66.0072C23.6918 67.5266 25.8662 69.0702 27.7021 71.0323C29.4187 72.8685 30.5753 74.9589 31.1061 77.4242C31.5955 79.6935 32.1166 81.9581 32.8228 84.1742C33.2269 85.4419 33.731 86.6661 34.4249 87.8129C34.9022 88.5992 34.7244 89.371 34.0402 89.7823C33.3998 90.1694 32.6231 90.0048 32.1361 89.2863C31.1743 87.8734 30.5534 86.296 30.0981 84.6629C29.5697 82.7758 28.9585 80.8935 28.6566 78.9653C28.0844 75.329 25.9733 72.7669 23.1853 70.621C21.6269 69.4185 20.015 68.2839 18.408 67.1444C15.8562 65.3298 14.2004 62.925 13.4724 59.8863C13.3384 59.3298 13.1899 58.7734 12.9976 58.2339C12.5787 57.0629 11.4635 56.475 10.3313 56.7919C9.14306 57.1234 8.43693 58.2314 8.74373 59.4556C9.26967 61.5629 9.8638 63.6532 10.4287 65.7508C11.0082 67.9064 11.595 70.0597 12.1599 72.2202C12.4205 73.2121 12.0358 73.9742 11.2274 74.1653C10.4677 74.3468 9.7664 73.8629 9.51073 72.929C8.36388 68.7073 7.20242 64.4903 6.10427 60.2564C5.39327 57.5153 6.75439 55.0984 9.46447 54.196C10.0829 53.9903 10.2583 53.7145 10.1462 53.0806C9.43525 49.0742 8.76565 45.0605 8.06682 41.0516C7.76002 39.2855 6.62291 38.25 5.1936 38.3782C3.6669 38.5161 2.75624 39.7331 2.81955 41.804L2.82442 41.8064ZM18.1109 48.7064C17.619 48.7887 17.0809 48.9726 16.7181 49.4734C15.6346 50.9661 14.5608 52.4637 13.4845 53.9613C13.2873 54.2347 13.1826 54.5008 13.5454 54.7258C14.3952 55.2532 15.0088 55.9814 15.4422 56.8718C15.5737 57.1427 15.7368 57.1379 15.9097 56.896C17.227 55.0524 18.6149 53.2524 19.8373 51.3484C20.5653 50.2161 19.5573 48.7137 18.1109 48.7064ZM23.1196 56.6371C23.0222 55.9331 22.7251 55.3693 22.0068 55.125C21.2934 54.8806 20.6798 55.0621 20.2366 55.6621C19.3941 56.8016 18.5808 57.9605 17.7505 59.1097C16.443 60.9193 16.4405 60.9726 17.77 62.7702C17.8406 62.8669 17.921 62.9589 17.9892 63.0581C18.3203 63.5298 18.5833 63.5226 18.929 63.0266C20.1514 61.2702 21.4102 59.5403 22.6545 57.7984C22.9028 57.45 23.083 57.075 23.1196 56.6419V56.6371ZM12.5081 50.6177C13.5527 49.1492 14.4585 47.9492 15.284 46.696C16.2457 45.2371 15.3692 43.4855 13.6209 43.2847C12.6372 43.171 11.4879 44.0855 11.6072 45.0193C11.8312 46.8 12.1721 48.5661 12.5106 50.6177H12.5081Z" fill="#B3B3B3"/>
<path d="M43.6749 46.9403C30.3315 46.8532 19.3353 35.671 20.2363 21.8226C21.0154 9.8492 31.5076 -0.810481 45.4281 0.04839C57.498 0.793551 68.292 11.2573 67.3473 25.1492C66.5145 37.3645 56.1856 46.9815 43.6749 46.9403ZM43.7406 44.2185C55.1507 44.1484 64.6153 35.2524 64.6616 23.5186C64.7078 12.1597 55.701 2.775 43.8551 2.73145C32.1309 2.69033 22.9512 11.9468 22.9342 23.4048C22.9171 35.0903 32.2575 44.0758 43.7382 44.2185H43.7406Z" fill="#B3B3B3"/>
<path d="M35.3893 34.1541C35.7083 31.8968 35.981 29.775 36.3268 27.6653C36.4193 27.0992 36.2391 26.7653 35.8714 26.4C34.5201 25.0549 33.1808 23.7 31.8538 22.3282C31.3741 21.8323 30.8531 21.3218 31.1355 20.5089C31.4131 19.7129 32.1143 19.5871 32.8059 19.4637C34.6564 19.1371 36.5094 18.8105 38.3648 18.5178C38.9589 18.4234 39.3485 18.167 39.6261 17.6274C40.5124 15.9097 41.4401 14.2137 42.341 12.5032C42.6649 11.8887 43.0496 11.3347 43.8288 11.3516C44.5593 11.3662 44.9294 11.8936 45.2386 12.4791C46.1395 14.1895 47.0672 15.8855 47.9536 17.6008C48.2287 18.1331 48.5988 18.4137 49.2027 18.5081C51.0289 18.7912 52.8502 19.1202 54.6715 19.4323C54.7616 19.4468 54.8493 19.4662 54.9394 19.4831C55.6187 19.6089 56.2494 19.8073 56.4758 20.5645C56.6925 21.2855 56.281 21.7815 55.8306 22.2412C54.5206 23.5839 53.2154 24.9339 51.8689 26.2379C51.3673 26.7242 51.1652 27.1815 51.2918 27.9C51.6206 29.7678 51.8373 31.6549 52.1368 33.5299C52.2488 34.2363 52.2098 34.8581 51.5913 35.3178C50.9802 35.7726 50.3909 35.5355 49.7992 35.2428C48.2238 34.4613 46.6217 33.7307 45.0779 32.8936C44.194 32.4145 43.4562 32.3783 42.548 32.8766C40.902 33.7791 39.1976 34.5799 37.4882 35.3613C36.3463 35.8839 35.3479 35.2041 35.3845 34.1492L35.3893 34.1541ZM43.7996 15.6532C42.9887 17.1678 42.2607 18.4863 41.5789 19.8242C41.2356 20.4968 40.7754 20.896 39.9938 21.0073C38.674 21.1912 37.3641 21.4597 36.0492 21.6871C35.8422 21.7234 35.5719 21.6871 35.4892 21.9097C35.4015 22.1444 35.6547 22.275 35.796 22.4178C36.7261 23.371 37.6611 24.3194 38.5986 25.2653C39.1245 25.7952 39.3363 26.3758 39.1829 27.15C38.9395 28.3912 38.8031 29.6516 38.6229 30.9049C38.5888 31.1395 38.4719 31.4226 38.696 31.5823C38.9248 31.7468 39.1513 31.5218 39.3607 31.4202C40.5075 30.8662 41.6568 30.3194 42.7891 29.7363C43.466 29.3879 44.1015 29.3758 44.7808 29.7242C45.9399 30.3194 47.1184 30.8807 48.292 31.4492C48.4771 31.5387 48.6792 31.7226 48.8813 31.5895C49.1248 31.4274 49.0055 31.1516 48.9738 30.9218C48.8034 29.6976 48.6816 28.4637 48.4284 27.2565C48.2531 26.417 48.4576 25.7903 49.0444 25.2121C49.9478 24.3194 50.8365 23.4097 51.7228 22.4976C51.8835 22.3307 52.1855 22.1928 52.1076 21.9291C52.0272 21.6581 51.7058 21.7234 51.4745 21.6823C50.1913 21.4549 48.9105 21.1936 47.6224 21.0097C46.8481 20.8984 46.3709 20.5089 46.0275 19.8363C45.3409 18.496 44.6128 17.1774 43.7996 15.6557V15.6532Z" fill="#B3B3B3"/>
</g>
<defs>
<clipPath id="clip0_47_727">
<rect width="87.5893" height="90" fill="white"/>
</clipPath>
</defs>
</svg>
